<?xml version="1.0" encoding="utf-8"?>
<!-- Generator: Adobe Illustrator 25.2.0, SVG Export Plug-In . SVG Version: 6.00 Build 0)  -->
<svg version="1.1" id="Camada_1" xmlns="http://www.w3.org/2000/svg" xmlns:xlink="http://www.w3.org/1999/xlink" x="0px" y="0px"
	 viewBox="0 0 12 12" style="enable-background:new 0 0 12 12;" xml:space="preserve">
<style type="text/css">
	.st0{fill:#FFFFFF;}
</style>
<path class="st0" d="M6,1c-2.7,0-5,2.2-5,5c0,0.9,0.2,1.7,0.7,2.5L1,11l2.6-0.7c0.7,0.4,1.5,0.6,2.4,0.6c2.7,0,5-2.2,5-5
	c0-1.3-0.5-2.6-1.4-3.5C8.6,1.5,7.3,1,6,1 M6,1.8c1.1,0,2.1,0.4,2.9,1.2c0.8,0.8,1.2,1.8,1.2,2.9c0,2.3-1.9,4.1-4.1,4.1
	c-0.7,0-1.5-0.2-2.1-0.6L3.8,9.4L2.2,9.8l0.4-1.5L2.5,8.1C2.1,7.5,1.9,6.7,1.9,6C1.9,3.7,3.8,1.8,6,1.8 M4.3,3.7
	c-0.1,0-0.2,0-0.3,0.2c-0.1,0.1-0.4,0.4-0.4,1C3.5,5.5,3.9,6,4,6.1C4.1,6.2,4.9,7.5,6.1,8c0.3,0.1,0.5,0.2,0.7,0.3
	c0.3,0.1,0.6,0.1,0.8,0.1c0.2,0,0.7-0.3,0.8-0.6c0.1-0.3,0.1-0.5,0.1-0.6c0-0.1-0.1-0.1-0.2-0.1C8.2,6.9,7.5,6.6,7.4,6.6
	c-0.1,0-0.2-0.1-0.3,0.1C7.1,6.8,6.8,7.1,6.8,7.1c-0.1,0.1-0.1,0.1-0.3,0C6.4,7.1,6,7,5.5,6.6C5.1,6.2,4.9,5.8,4.8,5.7
	c-0.1-0.1,0-0.2,0.1-0.2C4.9,5.4,5,5.3,5,5.2C5.1,5.2,5.1,5.1,5.2,5c0-0.1,0-0.2,0-0.2c0-0.1-0.3-0.7-0.4-0.9
	C4.7,3.6,4.6,3.7,4.5,3.7C4.4,3.7,4.3,3.7,4.3,3.7z"/>
</svg>
